<svg xmlns="http://www.w3.org/2000/svg" xmlns:xlink="http://www.w3.org/1999/xlink" version="1.1" data-diagram-type="CLASS" style="width:1831px;height:993px;background:#FFFFFF;" width="1831px" height="993px" viewBox="0 0 1831 993" zoomAndPan="magnify" preserveAspectRatio="none" contentStyleType="text/css"><?plantuml 1.2026.8?><defs/><g font-family="sans-serif" lengthAdjust="spacing"><g class="title" data-source-line="1"><text x="859.297" y="24.966" fill="#000" font-size="14" textLength="105.406" font-weight="700">Imker - UML v2</text></g><!--class user_system--><g class="entity" data-qualified-name="user_system" id="ent0001" data-source-line="15"><rect x="486.5" y="52.068" width="188.917" height="213.955" fill="#F1F1F1" style="stroke:#181818;stroke-width:0.5;" rx="2.5" ry="2.5"/><text x="557.919" y="69.896" fill="#000" font-size="12" textLength="46.08" font-style="italic">«ROBLE»</text><text x="540.037" y="88.378" fill="#000" font-size="14" textLength="81.844">user_system</text><line x1="487.5" y1="97.48" x2="674.417" y2="97.48" style="stroke:#181818;stroke-width:0.5;"/><g data-visibility-modifier="IE_MANDATORY"><ellipse cx="497.5" cy="112.514" rx="3" ry="3" fill="#000" style="stroke:#000;stroke-width:1;"/></g><text x="506.5" y="116.446" fill="#000" font-size="14" textLength="87.808">id : uuid «PK»</text><line x1="487.5" y1="124.548" x2="674.417" y2="124.548" style="stroke:#181818;stroke-width:1;"/><g data-visibility-modifier="IE_MANDATORY"><ellipse cx="497.5" cy="139.582" rx="3" ry="3" fill="#000" style="stroke:#000;stroke-width:1;"/></g><text x="506.5" y="143.514" fill="#000" font-size="14" textLength="88.032">user_id : uuid</text><g data-visibility-modifier="IE_MANDATORY"><ellipse cx="497.5" cy="158.65" rx="3" ry="3" fill="#000" style="stroke:#000;stroke-width:1;"/></g><text x="506.5" y="162.582" fill="#000" font-size="14" textLength="72.506">email : text</text><g data-visibility-modifier="IE_MANDATORY"><ellipse cx="497.5" cy="177.718" rx="3" ry="3" fill="#000" style="stroke:#000;stroke-width:1;"/></g><text x="506.5" y="181.65" fill="#000" font-size="14" textLength="73.934">name : text</text><g data-visibility-modifier="IE_MANDATORY"><ellipse cx="497.5" cy="196.786" rx="3" ry="3" fill="#000" style="stroke:#000;stroke-width:1;"/></g><text x="506.5" y="200.718" fill="#000" font-size="14" textLength="157.443">createdAt : timestamptz</text><g data-visibility-modifier="IE_MANDATORY"><ellipse cx="497.5" cy="215.853" rx="3" ry="3" fill="#000" style="stroke:#000;stroke-width:1;"/></g><text x="506.5" y="219.785" fill="#000" font-size="14" textLength="162.917">updatedAt : timestamptz</text><text x="506.5" y="238.853" fill="#000" font-size="14" textLength="81.074">extra : jsonb</text><text x="506.5" y="257.921" fill="#000" font-size="14" textLength="110.348">metadata : jsonb</text></g><!--class profile--><g class="entity" data-qualified-name="profile" id="ent0002" data-source-line="27"><rect x="6" y="332.568" width="229.769" height="178.543" fill="#F1F1F1" style="stroke:#181818;stroke-width:0.5;" rx="2.5" ry="2.5"/><text x="99.486" y="352.534" fill="#000" font-size="14" textLength="42.798">profile</text><line x1="7" y1="361.636" x2="234.769" y2="361.636" style="stroke:#181818;stroke-width:0.5;"/><g data-visibility-modifier="IE_MANDATORY"><ellipse cx="17" cy="376.67" rx="3" ry="3" fill="#000" style="stroke:#000;stroke-width:1;"/></g><text x="26" y="380.602" fill="#000" font-size="14" textLength="94.024">_id : uuid «PK»</text><line x1="7" y1="388.704" x2="234.769" y2="388.704" style="stroke:#181818;stroke-width:1;"/><text x="26" y="407.67" fill="#000" font-size="14" textLength="203.769">_owner : text «FK user_system»</text><g data-visibility-modifier="IE_MANDATORY"><ellipse cx="17" cy="422.806" rx="3" ry="3" fill="#000" style="stroke:#000;stroke-width:1;"/></g><text x="26" y="426.738" fill="#000" font-size="14" textLength="73.934">name : text</text><g data-visibility-modifier="IE_MANDATORY"><ellipse cx="17" cy="441.874" rx="3" ry="3" fill="#000" style="stroke:#000;stroke-width:1;"/></g><text x="26" y="445.806" fill="#000" font-size="14" textLength="89.012">career : jsonb</text><text x="26" y="464.873" fill="#000" font-size="14" textLength="78.806">skills : jsonb</text><text x="26" y="483.941" fill="#000" font-size="14" textLength="149.771">profilePicture : varchar</text><text x="26" y="503.009" fill="#000" font-size="14" textLength="110.166">description : text</text></g><!--class project--><g class="entity" data-qualified-name="project" id="ent0003" data-source-line="38"><rect x="973" y="60.068" width="167.693" height="197.611" fill="#F1F1F1" style="stroke:#181818;stroke-width:0.5;" rx="2.5" ry="2.5"/><text x="1033.775" y="80.034" fill="#000" font-size="14" textLength="46.144">project</text><line x1="974" y1="89.136" x2="1139.693" y2="89.136" style="stroke:#181818;stroke-width:0.5;"/><g data-visibility-modifier="IE_MANDATORY"><ellipse cx="984" cy="104.17" rx="3" ry="3" fill="#000" style="stroke:#000;stroke-width:1;"/></g><text x="993" y="108.102" fill="#000" font-size="14" textLength="94.024">_id : uuid «PK»</text><line x1="974" y1="116.204" x2="1139.693" y2="116.204" style="stroke:#181818;stroke-width:1;"/><text x="993" y="135.17" fill="#000" font-size="14" textLength="84.462">_owner : text</text><g data-visibility-modifier="IE_MANDATORY"><ellipse cx="984" cy="150.306" rx="3" ry="3" fill="#000" style="stroke:#000;stroke-width:1;"/></g><text x="993" y="154.238" fill="#000" font-size="14" textLength="61.67">title : text</text><g data-visibility-modifier="IE_MANDATORY"><ellipse cx="984" cy="169.374" rx="3" ry="3" fill="#000" style="stroke:#000;stroke-width:1;"/></g><text x="993" y="173.306" fill="#000" font-size="14" textLength="121.478">imageUrl : varchar</text><g data-visibility-modifier="IE_MANDATORY"><ellipse cx="984" cy="188.441" rx="3" ry="3" fill="#000" style="stroke:#000;stroke-width:1;"/></g><text x="993" y="192.373" fill="#000" font-size="14" textLength="110.166">description : text</text><g data-visibility-modifier="IE_MANDATORY"><ellipse cx="984" cy="207.509" rx="3" ry="3" fill="#000" style="stroke:#000;stroke-width:1;"/></g><text x="993" y="211.441" fill="#000" font-size="14" textLength="74.48">jobs : jsonb</text><g data-visibility-modifier="IE_MANDATORY"><ellipse cx="984" cy="226.577" rx="3" ry="3" fill="#000" style="stroke:#000;stroke-width:1;"/></g><text x="993" y="230.509" fill="#000" font-size="14" textLength="78.806">skills : jsonb</text><g data-visibility-modifier="IE_MANDATORY"><ellipse cx="984" cy="245.645" rx="3" ry="3" fill="#000" style="stroke:#000;stroke-width:1;"/></g><text x="993" y="249.577" fill="#000" font-size="14" textLength="141.693">status : open | closed</text></g><g class="entity" data-qualified-name="GMN4" id="ent0005" data-source-line="51"><path d="M1555,381.568 L1555,462.392 A0,0 0 0 0 1555,462.392 L1815.174,462.392 A0,0 0 0 0 1815.174,462.392 L1815.174,391.568 L1805.174,381.568 L1640.407,381.568 L1141.276,180.115 L1632.407,381.568 L1555,381.568 A0,0 0 0 0 1555,381.568" style="stroke:#181818;stroke-width:0.5;" fill="#FEFFDD"/><path d="M1805.174,381.568 L1805.174,391.568 L1815.174,391.568 L1805.174,381.568" style="stroke:#181818;stroke-width:0.5;" fill="#FEFFDD"/><text x="1561" y="400.465" fill="#000" font-size="13" textLength="236.431">Las columnas jsonb que guardan listas</text><text x="1561" y="418.171" fill="#000" font-size="13" textLength="239.174">(jobs y skills de project, skills de profile)</text><text x="1561" y="435.877" fill="#000" font-size="13" textLength="236.223">llevan el array en la raíz de la columna:</text><text x="1561" y="453.583" fill="#000" font-size="13" textLength="195.013">["a", "b"] y nunca {"values": [...]}.</text></g><!--class project_saved--><g class="entity" data-qualified-name="project_saved" id="ent0007" data-source-line="57"><rect x="618.5" y="371.068" width="189.491" height="102.272" fill="#F1F1F1" style="stroke:#181818;stroke-width:0.5;" rx="2.5" ry="2.5"/><text x="667.977" y="391.034" fill="#000" font-size="14" textLength="90.538">project_saved</text><line x1="619.5" y1="400.136" x2="806.991" y2="400.136" style="stroke:#181818;stroke-width:0.5;"/><g data-visibility-modifier="IE_MANDATORY"><ellipse cx="629.5" cy="415.17" rx="3" ry="3" fill="#000" style="stroke:#000;stroke-width:1;"/></g><text x="638.5" y="419.102" fill="#000" font-size="14" textLength="146.383">user_id : uuid «PK, FK»</text><g data-visibility-modifier="IE_MANDATORY"><ellipse cx="629.5" cy="434.238" rx="3" ry="3" fill="#000" style="stroke:#000;stroke-width:1;"/></g><text x="638.5" y="438.17" fill="#000" font-size="14" textLength="163.491">project_id : uuid «PK, FK»</text><line x1="619.5" y1="446.272" x2="806.991" y2="446.272" style="stroke:#181818;stroke-width:1;"/><g data-visibility-modifier="IE_MANDATORY"><ellipse cx="629.5" cy="461.306" rx="3" ry="3" fill="#000" style="stroke:#000;stroke-width:1;"/></g><text x="638.5" y="465.238" fill="#000" font-size="14" textLength="157.443">createdAt : timestamptz</text></g><!--class project_join_request--><g class="entity" data-qualified-name="project_join_request" id="ent0008" data-source-line="64"><rect x="254" y="323.068" width="346.473" height="197.611" fill="#F1F1F1" style="stroke:#181818;stroke-width:0.5;" rx="2.5" ry="2.5"/><text x="360.478" y="343.034" fill="#000" font-size="14" textLength="133.517">project_join_request</text><line x1="255" y1="352.136" x2="599.473" y2="352.136" style="stroke:#181818;stroke-width:0.5;"/><g data-visibility-modifier="IE_MANDATORY"><ellipse cx="265" cy="367.17" rx="3" ry="3" fill="#000" style="stroke:#000;stroke-width:1;"/></g><text x="274" y="371.102" fill="#000" font-size="14" textLength="94.024">_id : uuid «PK»</text><line x1="255" y1="379.204" x2="599.473" y2="379.204" style="stroke:#181818;stroke-width:1;"/><g data-visibility-modifier="IE_MANDATORY"><ellipse cx="265" cy="394.238" rx="3" ry="3" fill="#000" style="stroke:#000;stroke-width:1;"/></g><text x="274" y="398.17" fill="#000" font-size="14" textLength="121.856">user_id : uuid «FK»</text><g data-visibility-modifier="IE_MANDATORY"><ellipse cx="265" cy="413.306" rx="3" ry="3" fill="#000" style="stroke:#000;stroke-width:1;"/></g><text x="274" y="417.238" fill="#000" font-size="14" textLength="138.963">project_id : uuid «FK»</text><g data-visibility-modifier="IE_MANDATORY"><ellipse cx="265" cy="432.374" rx="3" ry="3" fill="#000" style="stroke:#000;stroke-width:1;"/></g><text x="274" y="436.306" fill="#000" font-size="14" textLength="320.473">status : pending | approved | denied | cancelled</text><g data-visibility-modifier="IE_MANDATORY"><ellipse cx="265" cy="451.441" rx="3" ry="3" fill="#000" style="stroke:#000;stroke-width:1;"/></g><text x="274" y="455.373" fill="#000" font-size="14" textLength="157.443">createdAt : timestamptz</text><g data-visibility-modifier="IE_MANDATORY"><ellipse cx="265" cy="470.509" rx="3" ry="3" fill="#000" style="stroke:#000;stroke-width:1;"/></g><text x="274" y="474.441" fill="#000" font-size="14" textLength="162.917">updatedAt : timestamptz</text><text x="274" y="493.509" fill="#000" font-size="14" textLength="241.639">reviewed_by : uuid «FK user_system»</text><text x="274" y="512.577" fill="#000" font-size="14" textLength="111.804">reviewNote : text</text></g><!--class project_member--><g class="entity" data-qualified-name="project_member" id="ent0009" data-source-line="76"><rect x="1120.5" y="371.068" width="189.491" height="102.272" fill="#F1F1F1" style="stroke:#181818;stroke-width:0.5;" rx="2.5" ry="2.5"/><text x="1160.884" y="391.034" fill="#000" font-size="14" textLength="108.724">project_member</text><line x1="1121.5" y1="400.136" x2="1308.991" y2="400.136" style="stroke:#181818;stroke-width:0.5;"/><g data-visibility-modifier="IE_MANDATORY"><ellipse cx="1131.5" cy="415.17" rx="3" ry="3" fill="#000" style="stroke:#000;stroke-width:1;"/></g><text x="1140.5" y="419.102" fill="#000" font-size="14" textLength="146.383">user_id : uuid «PK, FK»</text><g data-visibility-modifier="IE_MANDATORY"><ellipse cx="1131.5" cy="434.238" rx="3" ry="3" fill="#000" style="stroke:#000;stroke-width:1;"/></g><text x="1140.5" y="438.17" fill="#000" font-size="14" textLength="163.491">project_id : uuid «PK, FK»</text><line x1="1121.5" y1="446.272" x2="1308.991" y2="446.272" style="stroke:#181818;stroke-width:1;"/><g data-visibility-modifier="IE_MANDATORY"><ellipse cx="1131.5" cy="461.306" rx="3" ry="3" fill="#000" style="stroke:#000;stroke-width:1;"/></g><text x="1140.5" y="465.238" fill="#000" font-size="14" textLength="149.953">role : owner | member</text></g><!--class project_invitation--><g class="entity" data-qualified-name="project_invitation" id="ent0010" data-source-line="83"><rect x="825.5" y="323.068" width="276.655" height="197.611" fill="#F1F1F1" style="stroke:#181818;stroke-width:0.5;" rx="2.5" ry="2.5"/><text x="906.806" y="343.034" fill="#000" font-size="14" textLength="114.044">project_invitation</text><line x1="826.5" y1="352.136" x2="1101.155" y2="352.136" style="stroke:#181818;stroke-width:0.5;"/><g data-visibility-modifier="IE_MANDATORY"><ellipse cx="836.5" cy="367.17" rx="3" ry="3" fill="#000" style="stroke:#000;stroke-width:1;"/></g><text x="845.5" y="371.102" fill="#000" font-size="14" textLength="94.024">_id : uuid «PK»</text><line x1="826.5" y1="379.204" x2="1101.155" y2="379.204" style="stroke:#181818;stroke-width:1;"/><text x="845.5" y="398.17" fill="#000" font-size="14" textLength="84.462">_owner : text</text><g data-visibility-modifier="IE_MANDATORY"><ellipse cx="836.5" cy="413.306" rx="3" ry="3" fill="#000" style="stroke:#000;stroke-width:1;"/></g><text x="845.5" y="417.238" fill="#000" font-size="14" textLength="188.747">project_id : uuid «FK project»</text><g data-visibility-modifier="IE_MANDATORY"><ellipse cx="836.5" cy="432.374" rx="3" ry="3" fill="#000" style="stroke:#000;stroke-width:1;"/></g><text x="845.5" y="436.306" fill="#000" font-size="14" textLength="72.506">email : text</text><g data-visibility-modifier="IE_MANDATORY"><ellipse cx="836.5" cy="451.441" rx="3" ry="3" fill="#000" style="stroke:#000;stroke-width:1;"/></g><text x="845.5" y="455.373" fill="#000" font-size="14" textLength="207.339">user_id : uuid «FK user_system»</text><g data-visibility-modifier="IE_MANDATORY"><ellipse cx="836.5" cy="470.509" rx="3" ry="3" fill="#000" style="stroke:#000;stroke-width:1;"/></g><text x="845.5" y="474.441" fill="#000" font-size="14" textLength="250.655">status : pending | accepted | declined</text><g data-visibility-modifier="IE_MANDATORY"><ellipse cx="836.5" cy="489.577" rx="3" ry="3" fill="#000" style="stroke:#000;stroke-width:1;"/></g><text x="845.5" y="493.509" fill="#000" font-size="14" textLength="157.443">createdAt : timestamptz</text><text x="845.5" y="512.577" fill="#000" font-size="14" textLength="178.863">respondedAt : timestamptz</text></g><!--class task--><g class="entity" data-qualified-name="task" id="ent0011" data-source-line="95"><rect x="1327.5" y="352.068" width="209.231" height="140.408" fill="#F1F1F1" style="stroke:#181818;stroke-width:0.5;" rx="2.5" ry="2.5"/><text x="1418.571" y="372.034" fill="#000" font-size="14" textLength="27.09">task</text><line x1="1328.5" y1="381.136" x2="1535.731" y2="381.136" style="stroke:#181818;stroke-width:0.5;"/><g data-visibility-modifier="IE_MANDATORY"><ellipse cx="1338.5" cy="396.17" rx="3" ry="3" fill="#000" style="stroke:#000;stroke-width:1;"/></g><text x="1347.5" y="400.102" fill="#000" font-size="14" textLength="94.024">_id : uuid «PK»</text><line x1="1328.5" y1="408.204" x2="1535.731" y2="408.204" style="stroke:#181818;stroke-width:1;"/><g data-visibility-modifier="IE_MANDATORY"><ellipse cx="1338.5" cy="423.238" rx="3" ry="3" fill="#000" style="stroke:#000;stroke-width:1;"/></g><text x="1347.5" y="427.17" fill="#000" font-size="14" textLength="138.963">project_id : uuid «FK»</text><g data-visibility-modifier="IE_MANDATORY"><ellipse cx="1338.5" cy="442.306" rx="3" ry="3" fill="#000" style="stroke:#000;stroke-width:1;"/></g><text x="1347.5" y="446.238" fill="#000" font-size="14" textLength="61.67">title : text</text><text x="1347.5" y="465.306" fill="#000" font-size="14" textLength="110.166">description : text</text><g data-visibility-modifier="IE_MANDATORY"><ellipse cx="1338.5" cy="480.441" rx="3" ry="3" fill="#000" style="stroke:#000;stroke-width:1;"/></g><text x="1347.5" y="484.373" fill="#000" font-size="14" textLength="183.231">status : todo | doing | done</text></g><!--class contribution--><g class="entity" data-qualified-name="contribution" id="ent0012" data-source-line="104"><rect x="1363.5" y="583.068" width="183.443" height="159.475" fill="#F1F1F1" style="stroke:#181818;stroke-width:0.5;" rx="2.5" ry="2.5"/><text x="1414.552" y="603.034" fill="#000" font-size="14" textLength="81.34">contribution</text><line x1="1364.5" y1="612.136" x2="1545.943" y2="612.136" style="stroke:#181818;stroke-width:0.5;"/><g data-visibility-modifier="IE_MANDATORY"><ellipse cx="1374.5" cy="627.17" rx="3" ry="3" fill="#000" style="stroke:#000;stroke-width:1;"/></g><text x="1383.5" y="631.102" fill="#000" font-size="14" textLength="94.024">_id : uuid «PK»</text><line x1="1364.5" y1="639.204" x2="1545.943" y2="639.204" style="stroke:#181818;stroke-width:1;"/><g data-visibility-modifier="IE_MANDATORY"><ellipse cx="1374.5" cy="654.238" rx="3" ry="3" fill="#000" style="stroke:#000;stroke-width:1;"/></g><text x="1383.5" y="658.17" fill="#000" font-size="14" textLength="121.856">user_id : uuid «FK»</text><g data-visibility-modifier="IE_MANDATORY"><ellipse cx="1374.5" cy="673.306" rx="3" ry="3" fill="#000" style="stroke:#000;stroke-width:1;"/></g><text x="1383.5" y="677.238" fill="#000" font-size="14" textLength="138.963">project_id : uuid «FK»</text><g data-visibility-modifier="IE_MANDATORY"><ellipse cx="1374.5" cy="692.374" rx="3" ry="3" fill="#000" style="stroke:#000;stroke-width:1;"/></g><text x="1383.5" y="696.306" fill="#000" font-size="14" textLength="119.91">task_id : uuid «FK»</text><g data-visibility-modifier="IE_MANDATORY"><ellipse cx="1374.5" cy="711.441" rx="3" ry="3" fill="#000" style="stroke:#000;stroke-width:1;"/></g><text x="1383.5" y="715.373" fill="#000" font-size="14" textLength="110.166">description : text</text><g data-visibility-modifier="IE_MANDATORY"><ellipse cx="1374.5" cy="730.509" rx="3" ry="3" fill="#000" style="stroke:#000;stroke-width:1;"/></g><text x="1383.5" y="734.441" fill="#000" font-size="14" textLength="157.443">createdAt : timestamptz</text></g><g class="entity" data-qualified-name="GMN26" id="ent0027" data-source-line="137"><path d="M1315,784.068 L1315,847.186 A0,0 0 0 0 1315,847.186 L1594.544,847.186 A0,0 0 0 0 1594.544,847.186 L1594.544,794.068 L1584.544,784.068 L1459,784.068 L1455,742.164 L1451,784.068 L1315,784.068 A0,0 0 0 0 1315,784.068" style="stroke:#181818;stroke-width:0.5;" fill="#FEFFDD"/><path d="M1584.544,784.068 L1584.544,794.068 L1594.544,794.068 L1584.544,784.068" style="stroke:#181818;stroke-width:0.5;" fill="#FEFFDD"/><text x="1321" y="802.965" fill="#000" font-size="13" textLength="258.544">BEFORE INSERT OR UPDATE (si es posible):</text><text x="1327.76" y="820.671" fill="#000" font-size="13" textLength="190.359">validar que el member y la task</text><text x="1327.76" y="838.377" fill="#000" font-size="13" textLength="156.936">sean del mismo proyecto.</text></g><g class="entity" data-qualified-name="GMN29" id="ent0030" data-source-line="143"><path d="M290,631.068 L290,694.186 A0,0 0 0 0 290,694.186 L563.941,694.186 A0,0 0 0 0 563.941,694.186 L563.941,641.068 L553.941,631.068 L431,631.068 L427,521.107 L423,631.068 L290,631.068 A0,0 0 0 0 290,631.068" style="stroke:#181818;stroke-width:0.5;" fill="#FEFFDD"/><path d="M553.941,631.068 L553.941,641.068 L563.941,641.068 L553.941,631.068" style="stroke:#181818;stroke-width:0.5;" fill="#FEFFDD"/><text x="296" y="649.965" fill="#000" font-size="13" textLength="209.69">Una sola solicitud pending a la vez</text><text x="302.76" y="667.671" fill="#000" font-size="13" textLength="179.01">por cada (user_id, project_id).</text><text x="296" y="685.377" fill="#000" font-size="13" textLength="252.941">Las denied/cancelled quedan de historial.</text></g><g class="entity" data-qualified-name="GMN32" id="ent0033" data-source-line="149"><path d="M1068.5,622.068 L1068.5,702.892 A0,0 0 0 0 1068.5,702.892 L1345.717,702.892 A0,0 0 0 0 1345.717,702.892 L1345.717,632.068 L1335.717,622.068 L1212.328,622.068 L1213.313,473.356 L1204.328,622.068 L1068.5,622.068 A0,0 0 0 0 1068.5,622.068" style="stroke:#181818;stroke-width:0.5;" fill="#FEFFDD"/><path d="M1335.717,622.068 L1335.717,632.068 L1345.717,632.068 L1335.717,622.068" style="stroke:#181818;stroke-width:0.5;" fill="#FEFFDD"/><text x="1074.5" y="640.965" fill="#000" font-size="13" textLength="240.825">PK (user_id, project_id): una membresía</text><text x="1081.26" y="658.671" fill="#000" font-size="13" textLength="141.648">por usuario y proyecto.</text><text x="1074.5" y="676.377" fill="#000" font-size="13" textLength="256.217">Pendiente: qué pasa cuando alguien se va</text><text x="1074.5" y="694.083" fill="#000" font-size="13" textLength="100.685">(status o left_at).</text></g><g class="entity" data-qualified-name="GMN35" id="ent0036" data-source-line="156"><path d="M776,578.068 L776,747.422 A0,0 0 0 0 776,747.422 L1050.032,747.422 A0,0 0 0 0 1050.032,747.422 L1050.032,588.068 L1040.032,578.068 L934.872,578.068 L943.036,521.107 L926.872,578.068 L776,578.068 A0,0 0 0 0 776,578.068" style="stroke:#181818;stroke-width:0.5;" fill="#FEFFDD"/><path d="M1040.032,578.068 L1040.032,588.068 L1050.032,588.068 L1040.032,578.068" style="stroke:#181818;stroke-width:0.5;" fill="#FEFFDD"/><text x="782" y="596.965" fill="#000" font-size="13" textLength="219.713">El cliente verifica TODOS los correos</text><text x="782" y="614.671" fill="#000" font-size="13" textLength="244.556">(consulta guardada usuario_por_correo)</text><text x="782" y="632.377" fill="#000" font-size="13" textLength="168.389">ANTES de crear el proyecto.</text><text x="782" y="650.083" fill="#000" font-size="13" textLength="241.787">Si alguno no tiene cuenta, no se escribe</text><text x="782" y="667.789" fill="#000" font-size="13" textLength="253.032">nada: la creación se aborta por completo.</text><text x="782" y="685.495" fill="#000" font-size="13" textLength="235.131">Si la inserción falla después de crear el</text><text x="782" y="703.201" fill="#000" font-size="13" textLength="232.505">proyecto, se borra el proyecto con sus</text><text x="782" y="720.907" fill="#000" font-size="13" textLength="212.004">miembros e invitaciones (rollback).</text><text x="782" y="738.613" fill="#000" font-size="13" textLength="246.662">Una sola pending por (project_id, email).</text></g><g class="link" data-entity-1="ent0001" data-entity-2="ent0002" id="lnk13" data-link-type="association"><line x1="481.217" y1="197.245" x2="484.426" y2="204.573" style="stroke:#181818;stroke-width:1;"/><line x1="478.469" y1="198.448" x2="481.677" y2="205.776" style="stroke:#181818;stroke-width:1;"/><line x1="479.157" y1="202.513" x2="486.486" y2="199.305" style="stroke:#181818;stroke-width:1;"/><line x1="239.753" y1="326.274" x2="230.644" y2="332.441" style="stroke:#181818;stroke-width:1;"/><ellipse cx="239.753" cy="326.274" rx="4" ry="4" fill="none" style="stroke:#181818;stroke-width:1;"/><line x1="236.199" y1="333.511" x2="231.714" y2="326.886" style="stroke:#181818;stroke-width:1;"/><path d="M479.157,202.513 C410.179,232.71 322.854,274.231 245,323.068 C240.235,326.057 247.859,320.786 243.065,324.032" style="stroke:#181818;stroke-width:1;" fill="none"/><text x="309" y="299.965" fill="#000" font-size="13" textLength="44.59">_owner</text></g><g class="link" data-entity-1="ent0001" data-entity-2="ent0007" id="lnk14" data-link-type="crowfoot"><line x1="632.925" y1="271.601" x2="640.064" y2="267.991" style="stroke:#181818;stroke-width:1;"/><line x1="634.279" y1="274.278" x2="641.418" y2="270.668" style="stroke:#181818;stroke-width:1;"/><line x1="638.3" y1="273.366" x2="634.689" y2="266.227" style="stroke:#181818;stroke-width:1;"/><line x1="683.939" y1="363.606" x2="692.903" y2="368.037" style="stroke:#181818;stroke-width:1;"/><line x1="683.939" y1="363.606" x2="682.195" y2="373.452" style="stroke:#181818;stroke-width:1;"/><line x1="683.939" y1="363.606" x2="687.549" y2="370.744" style="stroke:#181818;stroke-width:1;"/><ellipse cx="681.231" cy="358.251" rx="4" ry="4" fill="none" style="stroke:#181818;stroke-width:1;"/><path d="M638.3,273.366 C656.572,309.495 664.416,325.004 679.425,354.682" style="stroke:#181818;stroke-width:1;" fill="none"/></g><g class="link" data-entity-1="ent0003" data-entity-2="ent0007" id="lnk15" data-link-type="crowfoot"><line x1="966.96" y1="236.461" x2="972.009" y2="242.667" style="stroke:#181818;stroke-width:1;"/><line x1="964.633" y1="238.355" x2="969.682" y2="244.56" style="stroke:#181818;stroke-width:1;"/><line x1="966.382" y1="242.089" x2="972.587" y2="237.039" style="stroke:#181818;stroke-width:1;"/><line x1="762.336" y1="365.316" x2="760.94" y2="375.218" style="stroke:#181818;stroke-width:1;"/><line x1="762.336" y1="365.316" x2="752.439" y2="366.748" style="stroke:#181818;stroke-width:1;"/><line x1="762.336" y1="365.316" x2="756.69" y2="370.983" style="stroke:#181818;stroke-width:1;"/><ellipse cx="766.571" cy="361.066" rx="4" ry="4" fill="none" style="stroke:#181818;stroke-width:1;"/><path d="M966.382,242.089 C936.528,266.381 907.871,286.618 873,305.068 C849.518,317.492 838.879,309.564 816,323.068 C794.425,335.802 786.471,341.093 769.394,358.232" style="stroke:#181818;stroke-width:1;" fill="none"/></g><g class="link" data-entity-1="ent0001" data-entity-2="ent0008" id="lnk16" data-link-type="crowfoot"><line x1="512.885" y1="267.639" x2="519.775" y2="271.704" style="stroke:#181818;stroke-width:1;"/><line x1="511.36" y1="270.223" x2="518.25" y2="274.288" style="stroke:#181818;stroke-width:1;"/><line x1="514.297" y1="273.117" x2="518.362" y2="266.227" style="stroke:#181818;stroke-width:1;"/><line x1="488.93" y1="316.109" x2="490.032" y2="326.048" style="stroke:#181818;stroke-width:1;"/><line x1="488.93" y1="316.109" x2="479.697" y2="319.95" style="stroke:#181818;stroke-width:1;"/><line x1="488.93" y1="316.109" x2="484.864" y2="322.999" style="stroke:#181818;stroke-width:1;"/><ellipse cx="491.979" cy="310.942" rx="4" ry="4" fill="none" style="stroke:#181818;stroke-width:1;"/><path d="M514.297,273.117 C503.222,291.887 504.948,288.962 494.011,307.497" style="stroke:#181818;stroke-width:1;" fill="none"/><text x="506" y="299.965" fill="#000" font-size="13" textLength="42.38">solicita</text></g><g class="link" data-entity-1="ent0001" data-entity-2="ent0008" id="lnk17" data-link-type="crowfoot"><line x1="479.119" y1="249.65" x2="486.327" y2="241.341" style="stroke:#181818;stroke-width:1;"/><ellipse cx="479.119" cy="249.65" rx="4" ry="4" fill="none" style="stroke:#181818;stroke-width:1;"/><line x1="480.685" y1="241.741" x2="486.727" y2="246.984" style="stroke:#181818;stroke-width:1;"/><line x1="442.751" y1="315.075" x2="446.275" y2="324.434" style="stroke:#181818;stroke-width:1;"/><line x1="442.751" y1="315.075" x2="434.753" y2="321.078" style="stroke:#181818;stroke-width:1;"/><line x1="442.751" y1="315.075" x2="440.514" y2="322.756" style="stroke:#181818;stroke-width:1;"/><ellipse cx="444.429" cy="309.314" rx="4" ry="4" fill="none" style="stroke:#181818;stroke-width:1;"/><path d="M476.497,252.671 C464.951,265.979 464.192,269.037 456,284.068 C449.485,296.022 449.465,292.02 445.547,305.474" style="stroke:#181818;stroke-width:1;" fill="none"/><text x="458" y="299.965" fill="#000" font-size="13" textLength="36.179">revisa</text></g><g class="link" data-entity-1="ent0003" data-entity-2="ent0008" id="lnk18" data-link-type="crowfoot"><line x1="967.156" y1="215.922" x2="971.63" y2="222.554" style="stroke:#181818;stroke-width:1;"/><line x1="964.669" y1="217.599" x2="969.143" y2="224.232" style="stroke:#181818;stroke-width:1;"/><line x1="966.077" y1="221.475" x2="972.709" y2="217.001" style="stroke:#181818;stroke-width:1;"/><line x1="607.81" y1="323.315" x2="602.065" y2="331.5" style="stroke:#181818;stroke-width:1;"/><line x1="607.81" y1="323.315" x2="598.345" y2="320.091" style="stroke:#181818;stroke-width:1;"/><line x1="607.81" y1="323.315" x2="600.205" y2="325.795" style="stroke:#181818;stroke-width:1;"/><ellipse cx="613.515" cy="321.455" rx="4" ry="4" fill="none" style="stroke:#181818;stroke-width:1;"/><path d="M966.077,221.475 C906.296,261.798 842.947,304.392 841,305.068 C743.305,339.003 708.229,293.922 609,323.068 C606.073,323.928 620.253,319.258 617.318,320.215" style="stroke:#181818;stroke-width:1;" fill="none"/></g><g class="link" data-entity-1="ent0001" data-entity-2="ent0009" id="lnk19" data-link-type="crowfoot"><line x1="678.586" y1="192.804" x2="680.801" y2="185.116" style="stroke:#181818;stroke-width:1;"/><line x1="681.469" y1="193.634" x2="683.684" y2="185.947" style="stroke:#181818;stroke-width:1;"/><line x1="683.537" y1="190.068" x2="675.85" y2="187.853" style="stroke:#181818;stroke-width:1;"/><line x1="1163.876" y1="365.422" x2="1173.785" y2="366.765" style="stroke:#181818;stroke-width:1;"/><line x1="1163.876" y1="365.422" x2="1165.361" y2="375.311" style="stroke:#181818;stroke-width:1;"/><line x1="1163.876" y1="365.422" x2="1169.573" y2="371.038" style="stroke:#181818;stroke-width:1;"/><ellipse cx="1159.603" cy="361.21" rx="4" ry="4" fill="none" style="stroke:#181818;stroke-width:1;"/><path d="M683.537,190.068 C760.815,212.334 865.227,241.577 964,266.068 C1000.216,275.047 1011.279,270.405 1046,284.068 C1093.624,302.808 1125.361,327.455 1156.754,358.402" style="stroke:#181818;stroke-width:1;" fill="none"/></g><g class="link" data-entity-1="ent0003" data-entity-2="ent0009" id="lnk20" data-link-type="crowfoot"><line x1="1115.157" y1="263.862" x2="1122.001" y2="259.719" style="stroke:#181818;stroke-width:1;"/><line x1="1116.711" y1="266.429" x2="1123.555" y2="262.286" style="stroke:#181818;stroke-width:1;"/><line x1="1120.651" y1="265.213" x2="1116.508" y2="258.369" style="stroke:#181818;stroke-width:1;"/><line x1="1180.392" y1="363.899" x2="1189.668" y2="367.635" style="stroke:#181818;stroke-width:1;"/><line x1="1180.392" y1="363.899" x2="1179.402" y2="373.85" style="stroke:#181818;stroke-width:1;"/><line x1="1180.392" y1="363.899" x2="1184.535" y2="370.743" style="stroke:#181818;stroke-width:1;"/><ellipse cx="1177.285" cy="358.766" rx="4" ry="4" fill="none" style="stroke:#181818;stroke-width:1;"/><path d="M1120.651,265.213 C1143.832,303.506 1155.937,323.503 1175.213,355.344" style="stroke:#181818;stroke-width:1;" fill="none"/></g><g class="link" data-entity-1="ent0001" data-entity-2="ent0010" id="lnk21" data-link-type="crowfoot"><line x1="676.727" y1="230.143" x2="681.232" y2="223.532" style="stroke:#181818;stroke-width:1;"/><line x1="679.206" y1="231.832" x2="683.711" y2="225.221" style="stroke:#181818;stroke-width:1;"/><line x1="682.285" y1="229.09" x2="675.674" y2="224.585" style="stroke:#181818;stroke-width:1;"/><line x1="818.599" y1="321.983" x2="828.589" y2="321.53" style="stroke:#181818;stroke-width:1;"/><line x1="818.599" y1="321.983" x2="821.831" y2="331.446" style="stroke:#181818;stroke-width:1;"/><line x1="818.599" y1="321.983" x2="825.21" y2="326.488" style="stroke:#181818;stroke-width:1;"/><ellipse cx="813.641" cy="318.604" rx="4" ry="4" fill="none" style="stroke:#181818;stroke-width:1;"/><path d="M682.285,229.09 C727.364,259.809 760.672,282.507 810.335,316.351" style="stroke:#181818;stroke-width:1;" fill="none"/><text x="786" y="299.965" fill="#000" font-size="13" textLength="49.192">invitado</text></g><g class="link" data-entity-1="ent0003" data-entity-2="ent0010" id="lnk22" data-link-type="crowfoot"><line x1="1016.863" y1="260.794" x2="1024.399" y2="263.479" style="stroke:#181818;stroke-width:1;"/><line x1="1015.856" y1="263.62" x2="1023.392" y2="266.305" style="stroke:#181818;stroke-width:1;"/><line x1="1019.288" y1="265.905" x2="1021.973" y2="258.369" style="stroke:#181818;stroke-width:1;"/><line x1="1001.68" y1="315.32" x2="1004.647" y2="324.869" style="stroke:#181818;stroke-width:1;"/><line x1="1001.68" y1="315.32" x2="993.343" y2="320.842" style="stroke:#181818;stroke-width:1;"/><line x1="1001.68" y1="315.32" x2="998.995" y2="322.856" style="stroke:#181818;stroke-width:1;"/><ellipse cx="1003.694" cy="309.668" rx="4" ry="4" fill="none" style="stroke:#181818;stroke-width:1;"/><path d="M1019.288,265.905 C1011.771,287.002 1012.553,284.806 1005.037,305.9" style="stroke:#181818;stroke-width:1;" fill="none"/><text x="1012" y="299.965" fill="#000" font-size="13" textLength="33.332">invita</text></g><g class="link" data-entity-1="ent0003" data-entity-2="ent0011" id="lnk23" data-link-type="crowfoot"><line x1="1142.629" y1="213.332" x2="1146.687" y2="206.438" style="stroke:#181818;stroke-width:1;"/><line x1="1145.214" y1="214.854" x2="1149.272" y2="207.96" style="stroke:#181818;stroke-width:1;"/><line x1="1148.105" y1="211.914" x2="1141.211" y2="207.856" style="stroke:#181818;stroke-width:1;"/><line x1="1349.384" y1="346.797" x2="1359.371" y2="347.317" style="stroke:#181818;stroke-width:1;"/><line x1="1349.384" y1="346.797" x2="1351.681" y2="356.53" style="stroke:#181818;stroke-width:1;"/><line x1="1349.384" y1="346.797" x2="1355.526" y2="351.924" style="stroke:#181818;stroke-width:1;"/><ellipse cx="1344.778" cy="342.952" rx="4" ry="4" fill="none" style="stroke:#181818;stroke-width:1;"/><path d="M1148.105,211.914 C1200.592,242.81 1261.876,280.936 1319,323.068 C1331.121,332.008 1329.732,330.393 1341.707,340.389" style="stroke:#181818;stroke-width:1;" fill="none"/></g><g class="link" data-entity-1="ent0009" data-entity-2="ent0012" id="lnk24" data-link-type="crowfoot"><line x1="1242.567" y1="478.719" x2="1249.298" y2="474.396" style="stroke:#181818;stroke-width:1;"/><line x1="1244.188" y1="481.244" x2="1250.919" y2="476.92" style="stroke:#181818;stroke-width:1;"/><line x1="1248.094" y1="479.923" x2="1243.771" y2="473.192" style="stroke:#181818;stroke-width:1;"/><line x1="1356.694" y1="579.05" x2="1366.684" y2="578.603" style="stroke:#181818;stroke-width:1;"/><line x1="1356.694" y1="579.05" x2="1359.92" y2="588.515" style="stroke:#181818;stroke-width:1;"/><line x1="1356.694" y1="579.05" x2="1363.302" y2="583.559" style="stroke:#181818;stroke-width:1;"/><ellipse cx="1351.738" cy="575.668" rx="4" ry="4" fill="none" style="stroke:#181818;stroke-width:1;"/><path d="M1248.094,479.923 C1266.269,508.221 1287.53,535.914 1317,560.068 C1331.453,571.914 1339.257,567.998 1355,578.068 C1357.763,579.835 1345.665,571.525 1348.434,573.414" style="stroke:#181818;stroke-width:1;" fill="none"/><text x="1319" y="554.965" fill="#000" font-size="13" textLength="118.716">(user_id, project_id)</text></g><g class="link" data-entity-1="ent0011" data-entity-2="ent0012" id="lnk25" data-link-type="crowfoot"><line x1="1435.086" y1="496.738" x2="1443.049" y2="495.97" style="stroke:#181818;stroke-width:1;"/><line x1="1435.374" y1="499.724" x2="1443.337" y2="498.956" style="stroke:#181818;stroke-width:1;"/><line x1="1439.451" y1="500.335" x2="1438.683" y2="492.372" style="stroke:#181818;stroke-width:1;"/><line x1="1446.642" y1="574.898" x2="1453.382" y2="582.285" style="stroke:#181818;stroke-width:1;"/><line x1="1446.642" y1="574.898" x2="1441.438" y2="583.437" style="stroke:#181818;stroke-width:1;"/><line x1="1446.642" y1="574.898" x2="1447.41" y2="582.861" style="stroke:#181818;stroke-width:1;"/><ellipse cx="1446.066" cy="568.926" rx="4" ry="4" fill="none" style="stroke:#181818;stroke-width:1;"/><path d="M1439.451,500.335 C1442.184,528.668 1442.863,535.711 1445.682,564.944" style="stroke:#181818;stroke-width:1;" fill="none"/></g><g class="legend" data-source-line="6"><rect x="1354.59" y="869.068" width="457.41" height="105.34" fill="#DDD" style="stroke:#000;stroke-width:1;" rx="7.5" ry="7.5"/><text x="1359.59" y="889.034" fill="#000" font-size="14" textLength="416.386">Toda tabla del servicio tiene _id y _owner asignados por ROBLE.</text><text x="1359.59" y="908.102" fill="#000" font-size="14" textLength="175.629">_owner = quién creó la fila.</text><text x="1359.59" y="927.17" fill="#000" font-size="14" textLength="196.797">Encima de la línea "--" va la PK</text><text x="1359.59" y="946.238" fill="#000" font-size="14" textLength="106.722">"*" = NOT NULL.</text><text x="1359.59" y="965.306" fill="#000" font-size="14" textLength="447.41">Llaves con underscore (user_id), atributos en camelCase (createdAt).</text></g><?plantuml-src hLVDRjiu4BxhAGQwR1BONc2FHZP0ktM18jaaoC-fA8onn3XCAD9BKkwwTO5zY7s97dhg8_XDzads8oKvSgAetHyWGCpXSEQR_v6NNWbwKzmBIqEw_lM4bZyboQtC1MNIPaeaxbxg1LikoDroRjvBFQSRLauaYH9peNEoSdxhaokJCtcUAQPSA7B2BcKc3NafjA2fp6b5K_DUGn4xETUGvMXXB5sSlJoPZ9BwxcVwhPIRpveoApPV2T9kfE9HCj6PB8BeG5ARBremfSDXIaiEbFFZ93r8yVhqx8fEhqzEHic9ugLmb1bDfSw5TPcnWlPA80EQ_G6njt9MUi0GKCU5KB-m0mSqinVv2xy_Ic1VPMMI_41__Vd7StyqqLxcd4DX3nV4UUbN536ubVEYeCF3w82Z8_gO713SDAQonB_3m_FZewDaE0IrnbnVWI0AbWf7BtxtE6g0VpXjyGUIB8JpN2pyXo1daNVU4E6bPL3ldD4pd0lX6RmFf4z90tvX3K8Y8jnf5rvgubmXmithuxR9u7e2cQs83nhzo3gbN8jGQpsNcIzjUBbaczsonHMSdbcvy1AHhYNkeBqJcVzkj63piIQsHwJTN5nRrT9vqANpWExCx07omMCRGF3ioq0m2sJScZ9bdCW3M6sye9dntXHaRXhGm7R28ODLMMZyY79G7uBc9TkSDIa9cGvyUr7tgj69Cgbb37P9mOVxu5TABF4UXShMyYfK0Ah8ykRBXxh6QgrZCBzDEHrGEalVGOCkTSRqCLsoAeLBn_HsD1gz-nHBXO8TZrq_TQZ3d684TXCvHc50huzZHZJidTUn39vBx2VHdjuPgQTMm5Mk9_GTU7gmr5VR82A6UMY6Q-85-8EDQ_XEo_WZOvq9U3d_bmLfnLAAzoAVpbPj28_ggE4x3VdpNEvF2r7CaE3_FG3MnCAewcLDbTmEXL8l9TmKYkCVr5stqnjoXFYextM4xqcZwOfNbec5h-ELAQbxenHyx1O68wGlyr26ztsPrfDHE_s6kblBrWflSXDmcygKt6ZHGe5XLmsryFX_JlnWOHUz4szFgVRFqGkX66k3_iOWRK_GzNeuDEljN1fJMcTMcZpb-xZRbf9cFdHUzZtVQJ5ZSaPXtV6y-yJqFKb3xJfEdyFGPk-5KjVXCsBgspu1hNe5hEgKcsU1xR1NX-GnRyYMBR7fGFNTJfP2OREJ3LhfjvyciQGwddmhXT0CkJzx7etR7U4l9w_FBYRqvlHoSd55PnTqVVxgnTM4zfma4JPM9sUOeM4kOWHYvxDn8cEIraQkmlICvcED4HYoOHqkf2jCC6y5yqnxM7QF_jtWNsiE2SPDbfNvjfl5xNSfGfiAotI6hOqw_Oc5c5qzdtxSJgU0FOyOwHQxXB6IrNUWgtFg_BXR5re440ScjCxD5wx1bGvh2pu9LYr7d0SxqBt4650sdsd13hj7oHfjZjMyn1sy25SdUtKFDAJ4ZPzolPxt0tr8LM2OAAnSKHayPkMDn29pTVRgx9AmY24Bh1KcBbD825SgRB_LdWMNrj2dC6DQCOOjwiNfrUGo-2wqEnjouC4meaiPBT064ElFeAo4TXu40eoAZNCcm8gl8Hx7hGk2Chdv6etccR404UDgYeKIMxdWb1gEhrZnEHQ_kjm27dHjFDNY714DWaG8n9hVmXa_ZrmPh2vaY5Vu6gfhkcx3UvZwQiRP_NvGlat59W43khs7s0-g6TsEpTy0?></g></svg>